<svg xmlns="http://www.w3.org/2000/svg" xmlns:xlink="http://www.w3.org/1999/xlink" width="1080" zoomAndPan="magnify" viewBox="0 0 810 809.999993" height="1080" preserveAspectRatio="xMidYMid meet" version="1.0"><defs><clipPath id="b30ea1b51e"><path d="M 111 41 L 727.160156 41 L 727.160156 790.082031 L 111 790.082031 Z M 111 41 " clip-rule="nonzero"/></clipPath></defs><g clip-path="url(#b30ea1b51e)"><path fill="#44d5f9" d="M 625.898438 274.507812 L 727.027344 41.824219 L 279.160156 239.902344 L 312.816406 193.242188 L 206.484375 228.476562 L 111.582031 384.699219 L 358.847656 306.667969 L 357.824219 306.980469 L 256.457031 594.605469 L 355.617188 790.164062 L 523.585938 790.164062 L 548.730469 694.15625 L 581.917969 707.875 L 525.636719 629.761719 L 467.78125 677.761719 L 391.246094 541.953125 L 459.503906 274.902344 L 533.835938 251.492188 L 513.261719 302.410156 Z M 625.898438 274.507812 " fill-opacity="1" fill-rule="nonzero"/></g><path fill="#ffffff" d="M 601.464844 256.773438 L 702.59375 24.089844 L 254.722656 222.167969 L 288.382812 175.507812 L 182.050781 210.738281 L 87.148438 366.964844 L 334.414062 288.933594 L 333.390625 289.246094 L 232.023438 576.871094 L 331.183594 772.429688 L 499.152344 772.429688 L 524.296875 676.421875 L 557.480469 690.136719 L 501.203125 612.023438 L 443.347656 660.027344 L 366.808594 524.214844 L 435.070312 257.167969 L 509.398438 233.757812 L 488.828125 284.753906 Z M 601.464844 256.773438 " fill-opacity="1" fill-rule="nonzero"/><path fill="#44d5f9" d="M 87.148438 370.90625 C 85.964844 370.90625 84.78125 370.355469 84.074219 369.410156 C 83.050781 368.148438 82.96875 366.335938 83.835938 364.917969 L 178.738281 208.691406 C 179.210938 207.902344 180 207.273438 180.867188 207.035156 L 287.121094 171.800781 C 288.777344 171.25 290.507812 171.800781 291.535156 173.21875 C 292.558594 174.558594 292.558594 176.453125 291.535156 177.871094 L 266.390625 212.710938 L 701.015625 20.460938 C 702.515625 19.832031 704.25 20.148438 705.351562 21.25 C 706.535156 22.433594 706.851562 24.167969 706.21875 25.585938 L 605.089844 258.347656 C 604.617188 259.453125 603.59375 260.320312 602.410156 260.632812 L 489.773438 288.617188 C 488.355469 289.011719 486.855469 288.457031 485.832031 287.355469 C 484.886719 286.25 484.570312 284.675781 485.121094 283.335938 L 502.542969 240.140625 L 88.328125 370.75 C 87.9375 370.828125 87.542969 370.90625 87.148438 370.90625 Z M 184.730469 214.050781 L 95.976562 360.03125 L 508.21875 229.972656 C 509.636719 229.5 511.292969 229.972656 512.316406 231.074219 C 513.339844 232.179688 513.65625 233.835938 513.105469 235.253906 L 495.449219 279.078125 L 598.707031 253.460938 L 694.949219 31.8125 L 256.300781 225.792969 C 254.644531 226.503906 252.753906 226.03125 251.648438 224.691406 C 250.546875 223.273438 250.46875 221.378906 251.492188 219.882812 L 277.976562 183.152344 Z M 184.730469 214.050781 " fill-opacity="1" fill-rule="nonzero"/><path fill="#44d5f9" d="M 499.152344 776.371094 L 331.183594 776.371094 C 329.683594 776.371094 328.34375 775.503906 327.636719 774.242188 L 228.476562 578.683594 C 228.003906 577.738281 227.925781 576.632812 228.238281 575.609375 L 329.605469 287.984375 C 330.316406 285.9375 332.601562 284.832031 334.648438 285.542969 C 336.699219 286.25 337.804688 288.539062 337.09375 290.585938 L 236.28125 576.632812 L 333.546875 768.488281 L 496.078125 768.488281 L 520.433594 675.476562 C 520.75 674.375 521.460938 673.429688 522.484375 672.953125 C 523.507812 672.480469 524.691406 672.402344 525.714844 672.875 L 546.050781 681.308594 L 500.335938 617.859375 L 445.710938 663.179688 C 444.84375 663.890625 443.660156 664.207031 442.480469 664.046875 C 441.296875 663.8125 440.351562 663.101562 439.800781 662.078125 L 363.339844 526.1875 C 362.867188 525.320312 362.710938 524.296875 362.949219 523.269531 L 431.207031 256.21875 C 431.757812 254.09375 433.886719 252.832031 436.015625 253.382812 C 438.144531 253.933594 439.40625 256.0625 438.855469 258.191406 L 370.988281 523.742188 L 444.449219 654.039062 L 498.679688 609.109375 C 499.546875 608.398438 500.648438 608.082031 501.675781 608.242188 C 502.777344 608.398438 503.722656 608.949219 504.355469 609.816406 L 560.554688 687.929688 C 561.582031 689.351562 561.5 691.320312 560.476562 692.660156 C 559.375 694.078125 557.480469 694.550781 555.90625 693.84375 L 526.976562 681.78125 L 503.015625 773.375 C 502.542969 775.109375 500.964844 776.371094 499.152344 776.371094 Z M 499.152344 776.371094 " fill-opacity="1" fill-rule="nonzero"/><path fill="#44d5f9" d="M 446.972656 658.371094 L 474.402344 728.128906 L 439.800781 661.683594 Z M 446.972656 658.371094 " fill-opacity="1" fill-rule="nonzero"/><path fill="#44d5f9" d="M 507.902344 230.128906 L 579.394531 204.199219 L 510.976562 237.382812 Z M 507.902344 230.128906 " fill-opacity="1" fill-rule="nonzero"/></svg>