<svg width="52" height="53" viewBox="0 0 52 53" fill="none" xmlns="http://www.w3.org/2000/svg">
<g clip-path="url(#clip0_304_4490)">
<rect y="0.027832" width="52" height="52" rx="26" fill="#FFDBD1" fill-opacity="0.4"/>
<path d="M36.6075 47.4281C30.5494 44.9904 28.553 41.963 29.0702 37.6013H22.4155C22.9327 41.963 20.9364 44.9904 14.8782 47.4281C8.82008 49.8659 8.00635 52.5277 8.00635 52.5277H43.5035C43.5035 52.5277 42.6726 49.8659 36.6075 47.4281Z" fill="#FF8482"/>
<path d="M25.702 44.704C27.4007 44.7052 29.0733 44.2858 30.5706 43.4834C29.2293 41.8215 28.8052 39.8975 29.0776 37.6218H22.4161C22.6885 39.9285 22.2575 41.8629 20.8955 43.5351C22.3792 44.3087 24.0288 44.7098 25.702 44.704Z" fill="#FF5B59"/>
<path d="M36.6081 47.4286C34.8366 46.7722 33.1822 45.835 31.7085 44.653L26.1261 49.825L19.8335 44.5806C18.6371 45.615 17.0096 46.5563 14.8719 47.4148C8.81373 49.8526 8 52.5144 8 52.5144H43.5041C43.5041 52.5144 42.6731 49.8664 36.6081 47.4286Z" fill="#6F87ED"/>
<path d="M17.1374 29.6926C18.2511 31.8269 17.7856 34.275 16.103 35.1611C14.4204 36.0473 12.1309 35.0335 11.0138 32.8992C9.89661 30.7649 10.3655 28.3134 12.0482 27.4273C13.7308 26.5411 16.0203 27.5479 17.1374 29.6926Z" fill="#FF8482"/>
<path d="M16.1545 33.7616C16.1545 33.6754 16.1338 33.5995 16.1235 33.5168C16.135 33.5668 16.1431 33.6174 16.1476 33.6685C16.1492 33.3043 16.0874 32.9426 15.9649 32.5996C15.7374 31.5836 15.2086 30.66 14.4476 29.9494C13.6866 29.2389 12.7289 28.7746 11.6997 28.6172C13.0551 29.404 14.2299 30.4672 15.1477 31.7376C13.934 31.2446 12.0445 32.2928 12.0445 32.2928C14.2719 31.6997 15.2856 32.1893 15.7511 32.7582C15.9237 33.0761 16.0591 33.4127 16.1545 33.7616Z" fill="#FF5B59"/>
<path d="M34.2667 29.6926C33.1495 31.8269 33.6185 34.275 35.3011 35.1611C36.9837 36.0473 39.2732 35.0335 40.3903 32.8992C41.5075 30.7649 41.0386 28.3134 39.3559 27.4273C37.6733 26.5411 35.3838 27.5479 34.2667 29.6926Z" fill="#FF8482"/>
<path d="M35.2456 33.7616C35.2456 33.6754 35.2698 33.5995 35.2766 33.5168C35.2766 33.5789 35.256 33.6271 35.2525 33.6685C35.2519 33.3041 35.3149 32.9424 35.4387 32.5996C35.6666 31.5827 36.1965 30.6583 36.9588 29.9477C37.7211 29.2371 38.6804 28.7733 39.7108 28.6172C38.3553 29.404 37.1806 30.4672 36.2628 31.7376C37.4799 31.2446 39.366 32.2928 39.366 32.2928C37.1351 31.6997 36.1214 32.1893 35.6559 32.7582C35.4828 33.0767 35.3452 33.4131 35.2456 33.7616Z" fill="#FF5B59"/>
<path d="M38.9867 20.6207C40.3659 17.6106 42.0416 12.2903 35.2387 9.19057C35.287 9.2147 32.3286 6.7218 27.0704 11.2594C25.3946 12.7317 23.1465 13.3764 21.0157 12.673C18.8848 11.9697 16.0919 12.0421 14.5403 15.9004C14.1601 16.775 13.9934 17.7276 14.0542 18.6795C13.5611 18.0623 12.8887 17.6451 12.2612 18.645C11.7544 19.4277 12.1716 22.8929 13.399 26.0271C13.399 26.0271 14.1128 33.5576 17.5367 34.7299L20.9157 30.0958C23.7189 30.0303 27.2083 29.9372 30.0805 29.8751L33.6216 34.7299C36.0731 33.892 37.1385 29.8165 37.5489 27.5512L37.9488 27.1064C39.528 25.3617 40.1279 22.9412 39.1591 20.9413C39.1004 20.8276 39.0453 20.7276 38.9867 20.6207Z" fill="#420E2F"/>
<path d="M21.0158 12.665C18.8918 11.9582 16.0921 12.0409 14.5232 15.8958C14.3673 16.2742 14.2438 16.6653 14.1543 17.0647L14.2439 17.2784C14.2439 17.2784 16.3196 12.4237 21.0158 12.665Z" fill="#7C1A59"/>
<path d="M35.2283 9.18985C35.2663 9.18985 33.4802 7.70031 30.2046 9.18985C30.8459 9.18985 39.028 9.2726 40.0831 17.2926C40.5865 14.5205 39.928 11.3276 35.2283 9.18985Z" fill="#7C1A59"/>
<path d="M22.581 17.5337C20.6957 17.5336 18.8864 18.2773 17.5462 19.6033C16.2059 20.9294 15.443 22.7306 15.423 24.6159L15.3506 31.4395C15.3506 37.6769 19.9847 42.7386 25.6946 42.7386C31.4045 42.7386 36.0386 37.6769 36.0386 31.4395L36.0179 24.1987C36.0179 20.5162 33.6422 15.4338 29.9563 15.4338L22.581 17.5337Z" fill="#FDB193"/>
<path opacity="0.39" d="M26.5181 37.8866C26.5181 37.8866 28.3731 37.9418 29.0351 36.4661C29.0351 36.4661 29.5627 37.5418 28.2972 38.1901C27.0318 38.8383 26.5181 37.8866 26.5181 37.8866Z" fill="#FF8282"/>
<g style="mix-blend-mode:multiply" opacity="0.55">
<path d="M36.0284 24.1987C36.0284 20.5162 33.6527 15.4338 29.9668 15.4338L22.5812 17.5337C20.6958 17.5336 18.8866 18.2773 17.5463 19.6033C16.2061 20.9294 15.4431 22.7306 15.4232 24.6159L15.3887 27.8466L16.4231 26.0709C16.4231 26.0399 17.1403 22.9988 23.6949 22.916C25.9844 22.885 28.7704 22.2264 30.5909 19.5887C31.2426 21.5471 32.3321 23.3091 33.6286 24.3676C34.317 24.95 35.1517 25.3328 36.0422 25.4744L36.0284 24.1987Z" fill="#FDB193"/>
</g>
<path d="M28.8493 33.4067C28.9732 33.7447 29.0363 34.1019 29.0355 34.4618C29.0521 35.1973 28.7914 35.9122 28.3053 36.4644C27.8192 37.0166 27.1432 37.3658 26.4116 37.4426C25.6799 37.5195 24.9461 37.3184 24.3559 36.8792C23.7657 36.4401 23.3622 35.795 23.2256 35.0721L28.8493 33.4067Z" fill="#230F0B"/>
<path d="M26.1019 37.472C25.6204 37.4751 25.146 37.3565 24.7227 37.1272C24.8811 36.4618 25.2629 35.8708 25.8044 35.4529C26.3459 35.035 27.0144 34.8154 27.6983 34.8308C28.1387 34.8313 28.5742 34.9229 28.9775 35.0998C28.8436 35.7654 28.4847 36.3645 27.961 36.7966C27.4372 37.2286 26.7807 37.4671 26.1019 37.472Z" fill="#E8132C"/>
<path d="M27.1766 31.6088C27.1766 32.5881 26.5146 33.3811 25.7009 33.3811C24.8871 33.3811 24.2217 32.5881 24.2217 31.6088C24.2217 30.6296 24.8837 29.4021 25.7009 29.4021C26.5181 29.4021 27.1766 30.6296 27.1766 31.6088Z" fill="#FF6A68"/>
<path d="M31.0239 28.4618C31.0239 29.2721 30.7515 29.9306 30.4101 29.9306C30.0688 29.9306 29.7964 29.2721 29.7964 28.4618C29.7964 27.6515 30.0722 26.9895 30.4101 26.9895C30.748 26.9895 31.0239 27.6481 31.0239 28.4618Z" fill="#25110D"/>
<path d="M33.3035 26.851C33.3828 26.8062 29.9796 24.6547 27.8798 24.734C27.8557 24.7684 27.9212 22.8548 30.7072 23.8582C33.4104 24.9684 33.2794 26.8821 33.3035 26.851Z" fill="#420E2F"/>
<path d="M20.9868 29.9294C21.3258 29.9294 21.6005 29.2718 21.6005 28.4605C21.6005 27.6493 21.3258 26.9917 20.9868 26.9917C20.6478 26.9917 20.373 27.6493 20.373 28.4605C20.373 29.2718 20.6478 29.9294 20.9868 29.9294Z" fill="#25110D"/>
<path d="M17.7841 26.8513C17.7048 26.8065 21.108 24.6549 23.2078 24.7342C23.2354 24.7687 23.1664 22.855 20.3804 23.8584C17.6806 24.9687 17.8082 26.8823 17.7841 26.8513Z" fill="#420E2F"/>
<path d="M19.5145 33.4507C19.4741 33.451 19.4342 33.4428 19.3972 33.4266C19.3322 33.3946 19.2824 33.3383 19.2586 33.27C19.2347 33.2016 19.2387 33.1265 19.2697 33.0611L20.1282 31.2854C20.1615 31.2233 20.2174 31.1766 20.2844 31.1549C20.3513 31.1332 20.4241 31.1382 20.4874 31.169C20.5507 31.1998 20.5996 31.2538 20.6239 31.3199C20.6482 31.3859 20.6461 31.4588 20.6178 31.5233L19.7593 33.299C19.7371 33.3449 19.7022 33.3835 19.6589 33.4104C19.6155 33.4372 19.5655 33.4512 19.5145 33.4507Z" fill="#FF6A68"/>
<path d="M17.8012 33.4507C17.755 33.4515 17.7093 33.4403 17.6686 33.4183C17.628 33.3962 17.5937 33.3641 17.569 33.3249C17.5444 33.2857 17.5303 33.2408 17.5281 33.1946C17.5259 33.1484 17.5357 33.1024 17.5564 33.0611L18.415 31.2854C18.4482 31.2233 18.5042 31.1766 18.5711 31.1549C18.6381 31.1332 18.7108 31.1382 18.7741 31.169C18.8374 31.1998 18.8864 31.2538 18.9107 31.3199C18.935 31.3859 18.9328 31.4588 18.9046 31.5233L18.0461 33.299C18.0235 33.3446 17.9886 33.383 17.9453 33.4098C17.9021 33.4367 17.8522 33.4508 17.8012 33.4507Z" fill="#FF6A68"/>
<path d="M31.721 33.4519C31.6701 33.452 31.6201 33.4379 31.5769 33.4111C31.5336 33.3843 31.4987 33.3458 31.4762 33.3002L30.6176 31.5245C30.5894 31.46 30.5872 31.3871 30.6115 31.3211C30.6358 31.255 30.6848 31.201 30.7481 31.1702C30.8114 31.1395 30.8841 31.1344 30.9511 31.1561C31.018 31.1778 31.074 31.2245 31.1072 31.2866L31.9658 33.0623C31.9968 33.1278 32.0007 33.2028 31.9769 33.2712C31.953 33.3396 31.9032 33.3958 31.8382 33.4278C31.8013 33.444 31.7613 33.4522 31.721 33.4519Z" fill="#FF6A68"/>
<path d="M33.4347 33.4521C33.3838 33.4522 33.3338 33.438 33.2906 33.4112C33.2473 33.3844 33.2124 33.346 33.1899 33.3003L32.3348 31.5246C32.3189 31.4927 32.3096 31.458 32.3072 31.4225C32.3049 31.387 32.3096 31.3514 32.3212 31.3177C32.3327 31.284 32.3508 31.2529 32.3745 31.2263C32.3981 31.1997 32.4268 31.178 32.4589 31.1626C32.491 31.1467 32.526 31.1373 32.5618 31.1349C32.5976 31.1325 32.6335 31.1372 32.6674 31.1487C32.7014 31.1603 32.7327 31.1784 32.7597 31.2021C32.7866 31.2258 32.8086 31.2545 32.8244 31.2867L33.6795 33.0624C33.7107 33.1275 33.7152 33.2022 33.692 33.2705C33.6688 33.3388 33.6197 33.3953 33.5554 33.4279C33.5173 33.4445 33.4762 33.4528 33.4347 33.4521Z" fill="#FF6A68"/>
<path d="M36.4905 21.2545L31.6322 12.9482L19.8918 16.5031L13.5923 24.1336C14.2961 24.6104 14.9111 25.2067 15.4094 25.8955C15.4094 25.8955 16.099 21.9786 23.6846 21.882C28.6704 21.8165 30.322 18.6926 30.9737 16.1652C31.1116 19.1133 32.5459 22.1544 34.2768 23.5646C34.7469 23.9912 35.3226 24.284 35.9442 24.4125C36.5657 24.5411 37.2104 24.5007 37.811 24.2956L36.4905 21.2545Z" fill="#420E2F"/>
</g>
<defs>
<clipPath id="clip0_304_4490">
<rect y="0.027832" width="52" height="52" rx="26" fill="white"/>
</clipPath>
</defs>
</svg>
